<svg xmlns="http://www.w3.org/2000/svg" xmlns:xlink="http://www.w3.org/1999/xlink" width="793" zoomAndPan="magnify" viewBox="0 0 595.5 842.249979" height="1122" preserveAspectRatio="xMidYMid meet" version="1.0"><defs><clipPath id="b6a5a1cb3e"><path d="M 159.84375 0 L 185 0 L 185 63 L 159.84375 63 Z M 159.84375 0 " clip-rule="nonzero"/></clipPath><clipPath id="e97407b2dc"><path d="M 159.84375 100 L 185 100 L 185 163 L 159.84375 163 Z M 159.84375 100 " clip-rule="nonzero"/></clipPath><clipPath id="c23c75a4db"><path d="M 159.84375 200 L 198 200 L 198 263 L 159.84375 263 Z M 159.84375 200 " clip-rule="nonzero"/></clipPath><clipPath id="e3270ee1b0"><path d="M 396 200 L 434.972656 200 L 434.972656 263 L 396 263 Z M 396 200 " clip-rule="nonzero"/></clipPath><clipPath id="e4191cfa7a"><path d="M 159.84375 300 L 185 300 L 185 363 L 159.84375 363 Z M 159.84375 300 " clip-rule="nonzero"/></clipPath><clipPath id="b74baeab7a"><path d="M 159.84375 400 L 185 400 L 185 462.398438 L 159.84375 462.398438 Z M 159.84375 400 " clip-rule="nonzero"/></clipPath><clipPath id="9592557286"><path d="M 215 400 L 241 400 L 241 462.398438 L 215 462.398438 Z M 215 400 " clip-rule="nonzero"/></clipPath><clipPath id="9891a5d2e9"><path d="M 278 400 L 304 400 L 304 462.398438 L 278 462.398438 Z M 278 400 " clip-rule="nonzero"/></clipPath><clipPath id="633b7bd9e2"><path d="M 334 400 L 373 400 L 373 462.398438 L 334 462.398438 Z M 334 400 " clip-rule="nonzero"/></clipPath><clipPath id="ca53218103"><path d="M 396 400 L 423 400 L 423 462.398438 L 396 462.398438 Z M 396 400 " clip-rule="nonzero"/></clipPath><clipPath id="2f4c769c22"><path d="M 159.84375 475 L 185 475 L 185 538 L 159.84375 538 Z M 159.84375 475 " clip-rule="nonzero"/></clipPath><clipPath id="8f37cebc34"><path d="M 159.84375 575 L 185 575 L 185 638 L 159.84375 638 Z M 159.84375 575 " clip-rule="nonzero"/></clipPath><clipPath id="3a858ea0c9"><path d="M 159.84375 674 L 198 674 L 198 738 L 159.84375 738 Z M 159.84375 674 " clip-rule="nonzero"/></clipPath><clipPath id="d2b496097d"><path d="M 396 674 L 434.972656 674 L 434.972656 738 L 396 738 Z M 396 674 " clip-rule="nonzero"/></clipPath><clipPath id="489cced369"><path d="M 159.84375 774 L 185 774 L 185 838 L 159.84375 838 Z M 159.84375 774 " clip-rule="nonzero"/></clipPath></defs><g clip-path="url(#b6a5a1cb3e)"><path fill="#d5b688" d="M 181.503906 62.878906 C 179.714844 62.878906 178.265625 61.429688 178.265625 59.636719 L 178.265625 9.457031 L 164.558594 18.597656 C 163.070312 19.589844 161.058594 19.1875 160.066406 17.699219 C 159.070312 16.207031 159.472656 14.195312 160.964844 13.203125 L 179.707031 0.707031 C 180.703125 0.0429688 181.980469 -0.0195312 183.035156 0.546875 C 184.089844 1.109375 184.746094 2.207031 184.746094 3.402344 L 184.746094 59.636719 C 184.746094 61.429688 183.296875 62.878906 181.503906 62.878906 " fill-opacity="1" fill-rule="nonzero"/></g><path fill="#d5b688" d="M 226.769531 6.644531 C 224.269531 6.644531 222.234375 8.675781 222.234375 11.175781 L 222.234375 51.867188 C 222.234375 54.367188 224.269531 56.398438 226.769531 56.398438 L 242.464844 56.398438 C 244.964844 56.398438 246.996094 54.367188 246.996094 51.867188 L 246.996094 11.175781 C 246.996094 8.675781 244.964844 6.644531 242.464844 6.644531 Z M 242.464844 62.878906 L 226.769531 62.878906 C 220.695312 62.878906 215.753906 57.9375 215.753906 51.867188 L 215.753906 11.175781 C 215.753906 5.101562 220.695312 0.160156 226.769531 0.160156 L 242.464844 0.160156 C 248.539062 0.160156 253.476562 5.101562 253.476562 11.175781 L 253.476562 51.867188 C 253.476562 57.9375 248.539062 62.878906 242.464844 62.878906 " fill-opacity="1" fill-rule="nonzero"/><path fill="#d5b688" d="M 300.226562 62.878906 C 298.4375 62.878906 296.984375 61.429688 296.984375 59.636719 L 296.984375 9.457031 L 283.277344 18.597656 C 281.789062 19.589844 279.777344 19.1875 278.78125 17.699219 C 277.789062 16.207031 278.191406 14.195312 279.683594 13.203125 L 298.425781 0.707031 C 299.421875 0.0429688 300.703125 -0.0195312 301.753906 0.546875 C 302.808594 1.109375 303.46875 2.207031 303.46875 3.402344 L 303.46875 59.636719 C 303.46875 61.429688 302.015625 62.878906 300.226562 62.878906 " fill-opacity="1" fill-rule="nonzero"/><path fill="#d5b688" d="M 345.484375 6.644531 C 342.988281 6.644531 340.957031 8.675781 340.957031 11.175781 L 340.957031 51.867188 C 340.957031 54.367188 342.988281 56.398438 345.484375 56.398438 L 361.1875 56.398438 C 363.683594 56.398438 365.71875 54.367188 365.71875 51.867188 L 365.71875 11.175781 C 365.71875 8.675781 363.683594 6.644531 361.1875 6.644531 Z M 361.1875 62.878906 L 345.484375 62.878906 C 339.414062 62.878906 334.472656 57.9375 334.472656 51.867188 L 334.472656 11.175781 C 334.472656 5.101562 339.414062 0.160156 345.484375 0.160156 L 361.1875 0.160156 C 367.257812 0.160156 372.199219 5.101562 372.199219 11.175781 L 372.199219 51.867188 C 372.199219 57.9375 367.257812 62.878906 361.1875 62.878906 " fill-opacity="1" fill-rule="nonzero"/><path fill="#d5b688" d="M 418.945312 62.878906 C 417.15625 62.878906 415.703125 61.429688 415.703125 59.636719 L 415.703125 9.457031 L 401.996094 18.597656 C 400.507812 19.589844 398.496094 19.1875 397.503906 17.699219 C 396.511719 16.207031 396.914062 14.195312 398.402344 13.203125 L 417.148438 0.707031 C 418.140625 0.0429688 419.421875 -0.0195312 420.472656 0.546875 C 421.527344 1.109375 422.1875 2.207031 422.1875 3.402344 L 422.1875 59.636719 C 422.1875 61.429688 420.734375 62.878906 418.945312 62.878906 " fill-opacity="1" fill-rule="nonzero"/><g clip-path="url(#e97407b2dc)"><path fill="#d5b688" d="M 181.503906 162.855469 C 179.714844 162.855469 178.265625 161.402344 178.265625 159.613281 L 178.265625 109.433594 L 164.558594 118.570312 C 163.066406 119.5625 161.058594 119.160156 160.066406 117.671875 C 159.070312 116.183594 159.472656 114.167969 160.964844 113.175781 L 179.707031 100.683594 C 180.703125 100.019531 181.980469 99.957031 183.035156 100.519531 C 184.089844 101.085938 184.746094 102.183594 184.746094 103.378906 L 184.746094 159.613281 C 184.746094 161.402344 183.296875 162.855469 181.503906 162.855469 " fill-opacity="1" fill-rule="nonzero"/></g><path fill="#d5b688" d="M 237.742188 162.855469 C 235.953125 162.855469 234.5 161.402344 234.5 159.613281 L 234.5 109.433594 L 220.792969 118.570312 C 219.304688 119.5625 217.289062 119.160156 216.296875 117.671875 C 215.304688 116.183594 215.707031 114.167969 217.199219 113.175781 L 235.945312 100.683594 C 236.9375 100.019531 238.21875 99.957031 239.269531 100.519531 C 240.324219 101.085938 240.984375 102.183594 240.984375 103.378906 L 240.984375 159.613281 C 240.984375 161.402344 239.53125 162.855469 237.742188 162.855469 " fill-opacity="1" fill-rule="nonzero"/><path fill="#d5b688" d="M 300.226562 162.855469 C 298.4375 162.855469 296.984375 161.402344 296.984375 159.613281 L 296.984375 109.433594 L 283.277344 118.570312 C 281.785156 119.5625 279.777344 119.160156 278.78125 117.671875 C 277.789062 116.183594 278.191406 114.167969 279.683594 113.175781 L 298.425781 100.683594 C 299.421875 100.019531 300.703125 99.957031 301.753906 100.519531 C 302.808594 101.085938 303.46875 102.183594 303.46875 103.378906 L 303.46875 159.613281 C 303.46875 161.402344 302.015625 162.855469 300.226562 162.855469 " fill-opacity="1" fill-rule="nonzero"/><path fill="#d5b688" d="M 345.484375 106.621094 C 342.988281 106.621094 340.957031 108.648438 340.957031 111.148438 L 340.957031 151.839844 C 340.957031 154.339844 342.988281 156.375 345.484375 156.375 L 361.1875 156.375 C 363.683594 156.375 365.71875 154.339844 365.71875 151.839844 L 365.71875 111.148438 C 365.71875 108.648438 363.683594 106.621094 361.1875 106.621094 Z M 361.1875 162.855469 L 345.484375 162.855469 C 339.414062 162.855469 334.472656 157.914062 334.472656 151.839844 L 334.472656 111.148438 C 334.472656 105.078125 339.414062 100.136719 345.484375 100.136719 L 361.1875 100.136719 C 367.257812 100.136719 372.199219 105.078125 372.199219 111.148438 L 372.199219 151.839844 C 372.199219 157.914062 367.257812 162.855469 361.1875 162.855469 " fill-opacity="1" fill-rule="nonzero"/><path fill="#d5b688" d="M 418.945312 162.855469 C 417.15625 162.855469 415.703125 161.402344 415.703125 159.613281 L 415.703125 109.433594 L 401.996094 118.570312 C 400.507812 119.5625 398.496094 119.160156 397.503906 117.671875 C 396.511719 116.183594 396.914062 114.167969 398.402344 113.175781 L 417.148438 100.683594 C 418.140625 100.019531 419.421875 99.957031 420.472656 100.519531 C 421.527344 101.085938 422.1875 102.183594 422.1875 103.378906 L 422.1875 159.613281 C 422.1875 161.402344 420.734375 162.855469 418.945312 162.855469 " fill-opacity="1" fill-rule="nonzero"/><g clip-path="url(#c23c75a4db)"><path fill="#d5b688" d="M 170.53125 206.59375 C 168.03125 206.59375 166.003906 208.625 166.003906 211.121094 L 166.003906 251.816406 C 166.003906 254.3125 168.03125 256.347656 170.53125 256.347656 L 186.230469 256.347656 C 188.730469 256.347656 190.761719 254.3125 190.761719 251.816406 L 190.761719 211.121094 C 190.761719 208.625 188.730469 206.59375 186.230469 206.59375 Z M 186.230469 262.828125 L 170.53125 262.828125 C 164.460938 262.828125 159.519531 257.890625 159.519531 251.816406 L 159.519531 211.121094 C 159.519531 205.050781 164.460938 200.109375 170.53125 200.109375 L 186.230469 200.109375 C 192.304688 200.109375 197.246094 205.050781 197.246094 211.121094 L 197.246094 251.816406 C 197.246094 257.890625 192.304688 262.828125 186.230469 262.828125 " fill-opacity="1" fill-rule="nonzero"/></g><path fill="#d5b688" d="M 243.992188 262.828125 C 242.199219 262.828125 240.75 261.378906 240.75 259.589844 L 240.75 209.410156 L 227.042969 218.546875 C 225.550781 219.539062 223.542969 219.136719 222.546875 217.648438 C 221.554688 216.160156 221.957031 214.144531 223.445312 213.152344 L 242.191406 200.65625 C 243.1875 199.992188 244.464844 199.929688 245.515625 200.496094 C 246.574219 201.058594 247.230469 202.15625 247.230469 203.351562 L 247.230469 259.589844 C 247.230469 261.378906 245.78125 262.828125 243.992188 262.828125 " fill-opacity="1" fill-rule="nonzero"/><path fill="#d5b688" d="M 289.25 206.59375 C 286.753906 206.59375 284.71875 208.625 284.71875 211.121094 L 284.71875 251.816406 C 284.71875 254.3125 286.753906 256.347656 289.25 256.347656 L 304.953125 256.347656 C 307.449219 256.347656 309.480469 254.3125 309.480469 251.816406 L 309.480469 211.121094 C 309.480469 208.625 307.449219 206.59375 304.953125 206.59375 Z M 304.953125 262.828125 L 289.25 262.828125 C 283.179688 262.828125 278.238281 257.890625 278.238281 251.816406 L 278.238281 211.121094 C 278.238281 205.050781 283.179688 200.109375 289.25 200.109375 L 304.953125 200.109375 C 311.023438 200.109375 315.964844 205.050781 315.964844 211.121094 L 315.964844 251.816406 C 315.964844 257.890625 311.023438 262.828125 304.953125 262.828125 " fill-opacity="1" fill-rule="nonzero"/><path fill="#d5b688" d="M 362.707031 262.828125 C 360.917969 262.828125 359.46875 261.378906 359.46875 259.589844 L 359.46875 209.410156 L 345.761719 218.546875 C 344.273438 219.539062 342.261719 219.136719 341.269531 217.648438 C 340.273438 216.160156 340.679688 214.144531 342.167969 213.152344 L 360.910156 200.65625 C 361.90625 199.992188 363.183594 199.929688 364.238281 200.496094 C 365.292969 201.058594 365.949219 202.15625 365.949219 203.351562 L 365.949219 259.589844 C 365.949219 261.378906 364.5 262.828125 362.707031 262.828125 " fill-opacity="1" fill-rule="nonzero"/><g clip-path="url(#e3270ee1b0)"><path fill="#d5b688" d="M 407.972656 206.59375 C 405.472656 206.59375 403.441406 208.625 403.441406 211.121094 L 403.441406 251.816406 C 403.441406 254.3125 405.472656 256.347656 407.972656 256.347656 L 423.671875 256.347656 C 426.167969 256.347656 428.203125 254.3125 428.203125 251.816406 L 428.203125 211.121094 C 428.203125 208.625 426.167969 206.59375 423.671875 206.59375 Z M 423.671875 262.828125 L 407.972656 262.828125 C 401.898438 262.828125 396.960938 257.890625 396.960938 251.816406 L 396.960938 211.121094 C 396.960938 205.050781 401.898438 200.109375 407.972656 200.109375 L 423.671875 200.109375 C 429.742188 200.109375 434.683594 205.050781 434.683594 211.121094 L 434.683594 251.816406 C 434.683594 257.890625 429.742188 262.828125 423.671875 262.828125 " fill-opacity="1" fill-rule="nonzero"/></g><g clip-path="url(#e4191cfa7a)"><path fill="#d5b688" d="M 181.503906 362.804688 C 179.714844 362.804688 178.265625 361.351562 178.265625 359.5625 L 178.265625 309.382812 L 164.558594 318.519531 C 163.070312 319.511719 161.058594 319.109375 160.066406 317.621094 C 159.070312 316.132812 159.472656 314.121094 160.964844 313.128906 L 179.707031 300.628906 C 180.703125 299.964844 181.980469 299.90625 183.035156 300.46875 C 184.089844 301.03125 184.746094 302.132812 184.746094 303.324219 L 184.746094 359.5625 C 184.746094 361.351562 183.296875 362.804688 181.503906 362.804688 " fill-opacity="1" fill-rule="nonzero"/></g><path fill="#d5b688" d="M 226.769531 306.566406 C 224.269531 306.566406 222.234375 308.601562 222.234375 311.097656 L 222.234375 351.792969 C 222.234375 354.289062 224.269531 356.320312 226.769531 356.320312 L 242.464844 356.320312 C 244.964844 356.320312 246.996094 354.289062 246.996094 351.792969 L 246.996094 311.097656 C 246.996094 308.601562 244.964844 306.566406 242.464844 306.566406 Z M 242.464844 362.804688 L 226.769531 362.804688 C 220.695312 362.804688 215.753906 357.863281 215.753906 351.792969 L 215.753906 311.097656 C 215.753906 305.023438 220.695312 300.085938 226.769531 300.085938 L 242.464844 300.085938 C 248.539062 300.085938 253.476562 305.023438 253.476562 311.097656 L 253.476562 351.792969 C 253.476562 357.863281 248.539062 362.804688 242.464844 362.804688 " fill-opacity="1" fill-rule="nonzero"/><path fill="#d5b688" d="M 300.226562 362.804688 C 298.4375 362.804688 296.984375 361.351562 296.984375 359.5625 L 296.984375 309.382812 L 283.277344 318.519531 C 281.789062 319.511719 279.777344 319.109375 278.78125 317.621094 C 277.789062 316.132812 278.191406 314.121094 279.683594 313.128906 L 298.425781 300.628906 C 299.421875 299.964844 300.703125 299.90625 301.753906 300.46875 C 302.808594 301.03125 303.46875 302.132812 303.46875 303.324219 L 303.46875 359.5625 C 303.46875 361.351562 302.015625 362.804688 300.226562 362.804688 " fill-opacity="1" fill-rule="nonzero"/><path fill="#d5b688" d="M 345.484375 306.566406 C 342.988281 306.566406 340.957031 308.601562 340.957031 311.097656 L 340.957031 351.792969 C 340.957031 354.289062 342.988281 356.320312 345.484375 356.320312 L 361.1875 356.320312 C 363.683594 356.320312 365.71875 354.289062 365.71875 351.792969 L 365.71875 311.097656 C 365.71875 308.601562 363.683594 306.566406 361.1875 306.566406 Z M 361.1875 362.804688 L 345.484375 362.804688 C 339.414062 362.804688 334.472656 357.863281 334.472656 351.792969 L 334.472656 311.097656 C 334.472656 305.023438 339.414062 300.085938 345.484375 300.085938 L 361.1875 300.085938 C 367.257812 300.085938 372.199219 305.023438 372.199219 311.097656 L 372.199219 351.792969 C 372.199219 357.863281 367.257812 362.804688 361.1875 362.804688 " fill-opacity="1" fill-rule="nonzero"/><path fill="#d5b688" d="M 418.945312 362.804688 C 417.15625 362.804688 415.703125 361.351562 415.703125 359.5625 L 415.703125 309.382812 L 401.996094 318.519531 C 400.507812 319.511719 398.496094 319.109375 397.503906 317.621094 C 396.511719 316.132812 396.914062 314.121094 398.402344 313.128906 L 417.148438 300.628906 C 418.140625 299.964844 419.421875 299.90625 420.472656 300.46875 C 421.527344 301.03125 422.1875 302.132812 422.1875 303.324219 L 422.1875 359.5625 C 422.1875 361.351562 420.734375 362.804688 418.945312 362.804688 " fill-opacity="1" fill-rule="nonzero"/><g clip-path="url(#b74baeab7a)"><path fill="#d5b688" d="M 181.503906 462.78125 C 179.714844 462.78125 178.265625 461.324219 178.265625 459.539062 L 178.265625 409.355469 L 164.558594 418.496094 C 163.066406 419.488281 161.058594 419.085938 160.066406 417.59375 C 159.070312 416.105469 159.472656 414.09375 160.964844 413.101562 L 179.707031 400.605469 C 180.703125 399.941406 181.980469 399.882812 183.035156 400.445312 C 184.089844 401.007812 184.746094 402.105469 184.746094 403.300781 L 184.746094 459.539062 C 184.746094 461.324219 183.296875 462.78125 181.503906 462.78125 " fill-opacity="1" fill-rule="nonzero"/></g><g clip-path="url(#9592557286)"><path fill="#d5b688" d="M 237.742188 462.78125 C 235.953125 462.78125 234.5 461.324219 234.5 459.539062 L 234.5 409.355469 L 220.792969 418.496094 C 219.304688 419.488281 217.289062 419.085938 216.296875 417.59375 C 215.304688 416.105469 215.707031 414.09375 217.199219 413.101562 L 235.945312 400.605469 C 236.9375 399.941406 238.21875 399.882812 239.269531 400.445312 C 240.324219 401.007812 240.984375 402.105469 240.984375 403.300781 L 240.984375 459.539062 C 240.984375 461.324219 239.53125 462.78125 237.742188 462.78125 " fill-opacity="1" fill-rule="nonzero"/></g><g clip-path="url(#9891a5d2e9)"><path fill="#d5b688" d="M 300.226562 462.78125 C 298.4375 462.78125 296.984375 461.324219 296.984375 459.539062 L 296.984375 409.355469 L 283.277344 418.496094 C 281.785156 419.488281 279.777344 419.085938 278.78125 417.59375 C 277.789062 416.105469 278.191406 414.09375 279.683594 413.101562 L 298.425781 400.605469 C 299.421875 399.941406 300.703125 399.882812 301.753906 400.445312 C 302.808594 401.007812 303.46875 402.105469 303.46875 403.300781 L 303.46875 459.539062 C 303.46875 461.324219 302.015625 462.78125 300.226562 462.78125 " fill-opacity="1" fill-rule="nonzero"/></g><g clip-path="url(#633b7bd9e2)"><path fill="#d5b688" d="M 345.484375 406.542969 C 342.988281 406.542969 340.957031 408.574219 340.957031 411.074219 L 340.957031 451.765625 C 340.957031 454.265625 342.988281 456.296875 345.484375 456.296875 L 361.1875 456.296875 C 363.683594 456.296875 365.71875 454.265625 365.71875 451.765625 L 365.71875 411.074219 C 365.71875 408.574219 363.683594 406.542969 361.1875 406.542969 Z M 361.1875 462.78125 L 345.484375 462.78125 C 339.414062 462.78125 334.472656 457.835938 334.472656 451.765625 L 334.472656 411.074219 C 334.472656 405 339.414062 400.0625 345.484375 400.0625 L 361.1875 400.0625 C 367.257812 400.0625 372.199219 405 372.199219 411.074219 L 372.199219 451.765625 C 372.199219 457.835938 367.257812 462.78125 361.1875 462.78125 " fill-opacity="1" fill-rule="nonzero"/></g><g clip-path="url(#ca53218103)"><path fill="#d5b688" d="M 418.945312 462.78125 C 417.15625 462.78125 415.703125 461.324219 415.703125 459.539062 L 415.703125 409.355469 L 401.996094 418.496094 C 400.507812 419.488281 398.496094 419.085938 397.503906 417.59375 C 396.511719 416.105469 396.914062 414.09375 398.402344 413.101562 L 417.148438 400.605469 C 418.140625 399.941406 419.421875 399.882812 420.472656 400.445312 C 421.527344 401.007812 422.1875 402.105469 422.1875 403.300781 L 422.1875 459.539062 C 422.1875 461.324219 420.734375 462.78125 418.945312 462.78125 " fill-opacity="1" fill-rule="nonzero"/></g><g clip-path="url(#2f4c769c22)"><path fill="#d5b688" d="M 181.503906 537.75 C 179.714844 537.75 178.265625 536.296875 178.265625 534.507812 L 178.265625 484.328125 L 164.558594 493.464844 C 163.070312 494.457031 161.058594 494.054688 160.066406 492.566406 C 159.070312 491.078125 159.472656 489.066406 160.964844 488.074219 L 179.707031 475.574219 C 180.703125 474.910156 181.980469 474.851562 183.035156 475.414062 C 184.089844 475.980469 184.746094 477.078125 184.746094 478.269531 L 184.746094 534.507812 C 184.746094 536.296875 183.296875 537.75 181.503906 537.75 " fill-opacity="1" fill-rule="nonzero"/></g><path fill="#d5b688" d="M 226.769531 481.511719 C 224.269531 481.511719 222.234375 483.546875 222.234375 486.042969 L 222.234375 526.738281 C 222.234375 529.234375 224.269531 531.265625 226.769531 531.265625 L 242.464844 531.265625 C 244.964844 531.265625 246.996094 529.234375 246.996094 526.738281 L 246.996094 486.042969 C 246.996094 483.546875 244.964844 481.511719 242.464844 481.511719 Z M 242.464844 537.75 L 226.769531 537.75 C 220.695312 537.75 215.753906 532.808594 215.753906 526.738281 L 215.753906 486.042969 C 215.753906 479.96875 220.695312 475.03125 226.769531 475.03125 L 242.464844 475.03125 C 248.539062 475.03125 253.476562 479.96875 253.476562 486.042969 L 253.476562 526.738281 C 253.476562 532.808594 248.539062 537.75 242.464844 537.75 " fill-opacity="1" fill-rule="nonzero"/><path fill="#d5b688" d="M 300.226562 537.75 C 298.4375 537.75 296.984375 536.296875 296.984375 534.507812 L 296.984375 484.328125 L 283.277344 493.464844 C 281.789062 494.457031 279.777344 494.054688 278.78125 492.566406 C 277.789062 491.078125 278.191406 489.066406 279.683594 488.074219 L 298.425781 475.574219 C 299.421875 474.910156 300.703125 474.851562 301.753906 475.414062 C 302.808594 475.980469 303.46875 477.078125 303.46875 478.269531 L 303.46875 534.507812 C 303.46875 536.296875 302.015625 537.75 300.226562 537.75 " fill-opacity="1" fill-rule="nonzero"/><path fill="#d5b688" d="M 345.484375 481.511719 C 342.988281 481.511719 340.957031 483.546875 340.957031 486.042969 L 340.957031 526.738281 C 340.957031 529.234375 342.988281 531.265625 345.484375 531.265625 L 361.1875 531.265625 C 363.683594 531.265625 365.71875 529.234375 365.71875 526.738281 L 365.71875 486.042969 C 365.71875 483.546875 363.683594 481.511719 361.1875 481.511719 Z M 361.1875 537.75 L 345.484375 537.75 C 339.414062 537.75 334.472656 532.808594 334.472656 526.738281 L 334.472656 486.042969 C 334.472656 479.96875 339.414062 475.03125 345.484375 475.03125 L 361.1875 475.03125 C 367.257812 475.03125 372.199219 479.96875 372.199219 486.042969 L 372.199219 526.738281 C 372.199219 532.808594 367.257812 537.75 361.1875 537.75 " fill-opacity="1" fill-rule="nonzero"/><path fill="#d5b688" d="M 418.945312 537.75 C 417.15625 537.75 415.703125 536.296875 415.703125 534.507812 L 415.703125 484.328125 L 401.996094 493.464844 C 400.507812 494.457031 398.496094 494.054688 397.503906 492.566406 C 396.511719 491.078125 396.914062 489.066406 398.402344 488.074219 L 417.148438 475.574219 C 418.140625 474.910156 419.421875 474.851562 420.472656 475.414062 C 421.527344 475.980469 422.1875 477.078125 422.1875 478.269531 L 422.1875 534.507812 C 422.1875 536.296875 420.734375 537.75 418.945312 537.75 " fill-opacity="1" fill-rule="nonzero"/><g clip-path="url(#8f37cebc34)"><path fill="#d5b688" d="M 181.503906 637.722656 C 179.714844 637.722656 178.265625 636.269531 178.265625 634.484375 L 178.265625 584.300781 L 164.558594 593.441406 C 163.066406 594.433594 161.058594 594.03125 160.066406 592.539062 C 159.070312 591.050781 159.472656 589.039062 160.964844 588.046875 L 179.707031 575.550781 C 180.703125 574.886719 181.980469 574.824219 183.035156 575.390625 C 184.089844 575.953125 184.746094 577.050781 184.746094 578.246094 L 184.746094 634.484375 C 184.746094 636.269531 183.296875 637.722656 181.503906 637.722656 " fill-opacity="1" fill-rule="nonzero"/></g><path fill="#d5b688" d="M 237.742188 637.722656 C 235.953125 637.722656 234.5 636.269531 234.5 634.484375 L 234.5 584.304688 L 220.792969 593.441406 C 219.304688 594.433594 217.289062 594.03125 216.296875 592.539062 C 215.304688 591.050781 215.707031 589.039062 217.199219 588.046875 L 235.945312 575.550781 C 236.9375 574.886719 238.21875 574.824219 239.269531 575.390625 C 240.324219 575.953125 240.984375 577.050781 240.984375 578.246094 L 240.984375 634.484375 C 240.984375 636.269531 239.53125 637.722656 237.742188 637.722656 " fill-opacity="1" fill-rule="nonzero"/><path fill="#d5b688" d="M 300.226562 637.722656 C 298.4375 637.722656 296.984375 636.269531 296.984375 634.484375 L 296.984375 584.304688 L 283.277344 593.441406 C 281.785156 594.433594 279.777344 594.03125 278.78125 592.539062 C 277.789062 591.050781 278.191406 589.039062 279.683594 588.046875 L 298.425781 575.550781 C 299.421875 574.886719 300.703125 574.824219 301.753906 575.390625 C 302.808594 575.953125 303.46875 577.050781 303.46875 578.246094 L 303.46875 634.484375 C 303.46875 636.269531 302.015625 637.722656 300.226562 637.722656 " fill-opacity="1" fill-rule="nonzero"/><path fill="#d5b688" d="M 345.484375 581.488281 C 342.988281 581.488281 340.957031 583.519531 340.957031 586.019531 L 340.957031 626.710938 C 340.957031 629.210938 342.988281 631.242188 345.484375 631.242188 L 361.1875 631.242188 C 363.683594 631.242188 365.71875 629.210938 365.71875 626.710938 L 365.71875 586.019531 C 365.71875 583.519531 363.683594 581.488281 361.1875 581.488281 Z M 361.1875 637.722656 L 345.484375 637.722656 C 339.414062 637.722656 334.472656 632.785156 334.472656 626.710938 L 334.472656 586.019531 C 334.472656 579.945312 339.414062 575.007812 345.484375 575.007812 L 361.1875 575.007812 C 367.257812 575.007812 372.199219 579.945312 372.199219 586.019531 L 372.199219 626.710938 C 372.199219 632.785156 367.257812 637.722656 361.1875 637.722656 " fill-opacity="1" fill-rule="nonzero"/><path fill="#d5b688" d="M 418.945312 637.722656 C 417.15625 637.722656 415.703125 636.269531 415.703125 634.484375 L 415.703125 584.304688 L 401.996094 593.441406 C 400.507812 594.433594 398.496094 594.03125 397.503906 592.539062 C 396.511719 591.050781 396.914062 589.039062 398.402344 588.046875 L 417.148438 575.550781 C 418.140625 574.886719 419.421875 574.824219 420.472656 575.390625 C 421.527344 575.953125 422.1875 577.050781 422.1875 578.246094 L 422.1875 634.484375 C 422.1875 636.269531 420.734375 637.722656 418.945312 637.722656 " fill-opacity="1" fill-rule="nonzero"/><g clip-path="url(#3a858ea0c9)"><path fill="#d5b688" d="M 170.53125 681.460938 C 168.03125 681.460938 166.003906 683.496094 166.003906 685.992188 L 166.003906 726.6875 C 166.003906 729.183594 168.03125 731.214844 170.53125 731.214844 L 186.230469 731.214844 C 188.730469 731.214844 190.761719 729.183594 190.761719 726.6875 L 190.761719 685.992188 C 190.761719 683.496094 188.730469 681.460938 186.230469 681.460938 Z M 186.230469 737.699219 L 170.53125 737.699219 C 164.460938 737.699219 159.519531 732.757812 159.519531 726.6875 L 159.519531 685.992188 C 159.519531 679.921875 164.460938 674.980469 170.53125 674.980469 L 186.230469 674.980469 C 192.304688 674.980469 197.246094 679.921875 197.246094 685.992188 L 197.246094 726.6875 C 197.246094 732.757812 192.304688 737.699219 186.230469 737.699219 " fill-opacity="1" fill-rule="nonzero"/></g><path fill="#d5b688" d="M 243.992188 737.699219 C 242.199219 737.699219 240.75 736.246094 240.75 734.457031 L 240.75 684.277344 L 227.042969 693.417969 C 225.550781 694.410156 223.542969 694.007812 222.546875 692.515625 C 221.554688 691.027344 221.957031 689.015625 223.445312 688.023438 L 242.191406 675.523438 C 243.1875 674.863281 244.464844 674.800781 245.515625 675.367188 C 246.574219 675.925781 247.230469 677.027344 247.230469 678.222656 L 247.230469 734.457031 C 247.230469 736.246094 245.78125 737.699219 243.992188 737.699219 " fill-opacity="1" fill-rule="nonzero"/><path fill="#d5b688" d="M 289.25 681.460938 C 286.753906 681.460938 284.71875 683.496094 284.71875 685.992188 L 284.71875 726.6875 C 284.71875 729.183594 286.753906 731.214844 289.25 731.214844 L 304.953125 731.214844 C 307.449219 731.214844 309.480469 729.183594 309.480469 726.6875 L 309.480469 685.992188 C 309.480469 683.496094 307.449219 681.460938 304.953125 681.460938 Z M 304.953125 737.699219 L 289.25 737.699219 C 283.179688 737.699219 278.238281 732.757812 278.238281 726.6875 L 278.238281 685.992188 C 278.238281 679.921875 283.179688 674.980469 289.25 674.980469 L 304.953125 674.980469 C 311.023438 674.980469 315.964844 679.921875 315.964844 685.992188 L 315.964844 726.6875 C 315.964844 732.757812 311.023438 737.699219 304.953125 737.699219 " fill-opacity="1" fill-rule="nonzero"/><path fill="#d5b688" d="M 362.707031 737.699219 C 360.917969 737.699219 359.46875 736.246094 359.46875 734.457031 L 359.46875 684.277344 L 345.761719 693.417969 C 344.273438 694.410156 342.261719 694.007812 341.269531 692.515625 C 340.273438 691.027344 340.679688 689.015625 342.167969 688.023438 L 360.910156 675.523438 C 361.90625 674.863281 363.183594 674.800781 364.238281 675.367188 C 365.292969 675.925781 365.949219 677.027344 365.949219 678.222656 L 365.949219 734.457031 C 365.949219 736.246094 364.5 737.699219 362.707031 737.699219 " fill-opacity="1" fill-rule="nonzero"/><g clip-path="url(#d2b496097d)"><path fill="#d5b688" d="M 407.972656 681.460938 C 405.472656 681.460938 403.441406 683.496094 403.441406 685.992188 L 403.441406 726.6875 C 403.441406 729.183594 405.472656 731.214844 407.972656 731.214844 L 423.671875 731.214844 C 426.167969 731.214844 428.203125 729.183594 428.203125 726.6875 L 428.203125 685.992188 C 428.203125 683.496094 426.167969 681.460938 423.671875 681.460938 Z M 423.671875 737.699219 L 407.972656 737.699219 C 401.898438 737.699219 396.960938 732.757812 396.960938 726.6875 L 396.960938 685.992188 C 396.960938 679.921875 401.898438 674.980469 407.972656 674.980469 L 423.671875 674.980469 C 429.742188 674.980469 434.683594 679.921875 434.683594 685.992188 L 434.683594 726.6875 C 434.683594 732.757812 429.742188 737.699219 423.671875 737.699219 " fill-opacity="1" fill-rule="nonzero"/></g><g clip-path="url(#489cced369)"><path fill="#d5b688" d="M 181.503906 837.671875 C 179.714844 837.671875 178.265625 836.222656 178.265625 834.429688 L 178.265625 784.25 L 164.558594 793.390625 C 163.070312 794.382812 161.058594 793.980469 160.066406 792.492188 C 159.070312 791.003906 159.472656 788.988281 160.964844 787.996094 L 179.707031 775.5 C 180.703125 774.835938 181.980469 774.773438 183.035156 775.339844 C 184.089844 775.902344 184.746094 777 184.746094 778.195312 L 184.746094 834.429688 C 184.746094 836.222656 183.296875 837.671875 181.503906 837.671875 " fill-opacity="1" fill-rule="nonzero"/></g><path fill="#d5b688" d="M 226.769531 781.4375 C 224.269531 781.4375 222.234375 783.46875 222.234375 785.96875 L 222.234375 826.660156 C 222.234375 829.15625 224.269531 831.191406 226.769531 831.191406 L 242.464844 831.191406 C 244.964844 831.191406 246.996094 829.15625 246.996094 826.660156 L 246.996094 785.96875 C 246.996094 783.46875 244.964844 781.4375 242.464844 781.4375 Z M 242.464844 837.671875 L 226.769531 837.671875 C 220.695312 837.671875 215.753906 832.730469 215.753906 826.660156 L 215.753906 785.96875 C 215.753906 779.894531 220.695312 774.953125 226.769531 774.953125 L 242.464844 774.953125 C 248.539062 774.953125 253.476562 779.894531 253.476562 785.96875 L 253.476562 826.660156 C 253.476562 832.730469 248.539062 837.671875 242.464844 837.671875 " fill-opacity="1" fill-rule="nonzero"/><path fill="#d5b688" d="M 300.226562 837.671875 C 298.4375 837.671875 296.984375 836.222656 296.984375 834.429688 L 296.984375 784.25 L 283.277344 793.390625 C 281.789062 794.382812 279.777344 793.980469 278.78125 792.492188 C 277.789062 791.003906 278.191406 788.988281 279.683594 787.996094 L 298.425781 775.5 C 299.421875 774.835938 300.703125 774.773438 301.753906 775.339844 C 302.808594 775.902344 303.46875 777 303.46875 778.195312 L 303.46875 834.429688 C 303.46875 836.222656 302.015625 837.671875 300.226562 837.671875 " fill-opacity="1" fill-rule="nonzero"/><path fill="#d5b688" d="M 345.484375 781.4375 C 342.988281 781.4375 340.957031 783.46875 340.957031 785.96875 L 340.957031 826.660156 C 340.957031 829.15625 342.988281 831.191406 345.484375 831.191406 L 361.1875 831.191406 C 363.683594 831.191406 365.71875 829.15625 365.71875 826.660156 L 365.71875 785.96875 C 365.71875 783.46875 363.683594 781.4375 361.1875 781.4375 Z M 361.1875 837.671875 L 345.484375 837.671875 C 339.414062 837.671875 334.472656 832.730469 334.472656 826.660156 L 334.472656 785.96875 C 334.472656 779.894531 339.414062 774.953125 345.484375 774.953125 L 361.1875 774.953125 C 367.257812 774.953125 372.199219 779.894531 372.199219 785.96875 L 372.199219 826.660156 C 372.199219 832.730469 367.257812 837.671875 361.1875 837.671875 " fill-opacity="1" fill-rule="nonzero"/><path fill="#d5b688" d="M 418.945312 837.671875 C 417.15625 837.671875 415.703125 836.222656 415.703125 834.429688 L 415.703125 784.25 L 401.996094 793.390625 C 400.507812 794.382812 398.496094 793.980469 397.503906 792.492188 C 396.511719 791.003906 396.914062 788.988281 398.402344 787.996094 L 417.148438 775.5 C 418.140625 774.835938 419.421875 774.773438 420.472656 775.339844 C 421.527344 775.902344 422.1875 777 422.1875 778.195312 L 422.1875 834.429688 C 422.1875 836.222656 420.734375 837.671875 418.945312 837.671875 " fill-opacity="1" fill-rule="nonzero"/></svg>